ffmpeg version 3.4.8-0ubuntu0.2 Copyright (c) 2000-2020 the FFmpeg developers
  built with gcc 7 (Ubuntu 7.5.0-3ubuntu1~18.04)
  configuration: --prefix=/usr --extra-version=0ubuntu0.2 --toolchain=hardened --libdir=/usr/lib/x86_64-linux-gnu --incdir=/usr/include/x86_64-linux-gnu --enable-gpl --disable-stripping --enable-avresample --enable-avisynth --enable-gnutls --enable-ladspa --enable-libass --enable-libbluray --enable-libbs2b --enable-libcaca --enable-libcdio --enable-libflite --enable-libfontconfig --enable-libfreetype --enable-libfribidi --enable-libgme --enable-libgsm --enable-libmp3lame --enable-libmysofa --enable-libopenjpeg --enable-libopenmpt --enable-libopus --enable-libpulse --enable-librubberband --enable-librsvg --enable-libshine --enable-libsnappy --enable-libsoxr --enable-libspeex --enable-libssh --enable-libtheora --enable-libtwolame --enable-libvorbis --enable-libvpx --enable-libwavpack --enable-libwebp --enable-libx265 --enable-libxml2 --enable-libxvid --enable-libzmq --enable-libzvbi --enable-omx --enable-openal --enable-opengl --enable-sdl2 --enable-libdc1394 --enable-libdrm --enable-libiec61883 --enable-chromaprint --enable-frei0r --enable-libopencv --enable-libx264 --enable-shared
  libavutil      55. 78.100 / 55. 78.100
  libavcodec     57.107.100 / 57.107.100
  libavformat    57. 83.100 / 57. 83.100
  libavdevice    57. 10.100 / 57. 10.100
  libavfilter     6.107.100 /  6.107.100
  libavresample   3.  7.  0 /  3.  7.  0
  libswscale      4.  8.100 /  4.  8.100
  libswresample   2.  9.100 /  2.  9.100
  libpostproc    54.  7.100 / 54.  7.100
[rawvideo @ 0x56290fd37a20] Estimating duration from bitrate, this may be inaccurate
Input #0, rawvideo, from '../../SVC-Encoder-20220109T061506Z-001/SVC-Encoder/Dataset/RollerCoaster/6f_2x2/tile_yuv/f0_t2_480x480.yuv':
  Duration: 00:00:10.00, start: 0.000000, bitrate: 82944 kb/s
    Stream #0:0: Video: rawvideo (I420 / 0x30323449), yuv420p, 480x480, 82944 kb/s, 30 tbr, 30 tbn, 30 tbc
Stream mapping:
  Stream #0:0 -> #0:0 (rawvideo (native) -> h264 (libx264))
Press [q] to stop, [?] for help
[libx264 @ 0x56290fd44c60] using cpu capabilities: MMX2 SSE2Fast LZCNT SSSE3 SSE4.2 AVX
[libx264 @ 0x56290fd44c60] profile High, level 3.0
Output #0, rawvideo, to 'RollerCoaster_f0_t2_480x480_x264_QP_28.h264':
  Metadata:
    encoder         : Lavf57.83.100
    Stream #0:0: Video: h264 (libx264), yuv420p, 480x480, q=-1--1, 30 fps, 30 tbn, 30 tbc
    Metadata:
      encoder         : Lavc57.107.100 libx264
    Side data:
      cpb: bitrate max/min/avg: 0/0/0 buffer size: 0 vbv_delay: -1
frame=  112 fps=0.0 q=34.0 PSNR=Y:nan U:nan V:nan *:nan size=     118kB time=00:00:02.30 bitrate= 418.9kbits/s speed=4.49x    frame=  189 fps=186 q=34.0 PSNR=Y:nan U:nan V:nan *:nan size=     229kB time=00:00:04.86 bitrate= 385.0kbits/s speed=4.79x    frame=  268 fps=176 q=34.0 PSNR=Y:nan U:nan V:nan *:nan size=     256kB time=00:00:07.50 bitrate= 279.6kbits/s speed=4.93x    frame=  300 fps=147 q=34.0 LPSNR=Y:inf U:inf V:inf *:inf size=     441kB time=00:00:09.93 bitrate= 363.6kbits/s speed=4.88x    
video:441kB audio:0kB subtitle:0kB other streams:0kB global headers:0kB muxing overhead: 0.000000%
[libx264 @ 0x56290fd44c60] frame I:2     Avg QP:27.09  size: 16698  PSNR Mean Y:41.17 U:45.17 V:48.22 Avg:42.32 Global:42.23
[libx264 @ 0x56290fd44c60] frame P:76    Avg QP:28.24  size:  3835  PSNR Mean Y:39.37 U:44.77 V:47.64 Avg:40.68 Global:40.64
[libx264 @ 0x56290fd44c60] frame B:222   Avg QP:33.45  size:   570  PSNR Mean Y:38.62 U:44.62 V:47.56 Avg:39.99 Global:39.98
[libx264 @ 0x56290fd44c60] consecutive B-frames:  1.3%  0.0%  0.0% 98.7%
[libx264 @ 0x56290fd44c60] mb I  I16..4: 29.8% 53.5% 16.7%
[libx264 @ 0x56290fd44c60] mb P  I16..4:  1.2%  0.8%  0.1%  P16..4: 31.4% 18.7%  7.7%  0.0%  0.0%    skip:40.0%
[libx264 @ 0x56290fd44c60] mb B  I16..4:  0.0%  0.0%  0.0%  B16..8: 27.9%  3.8%  0.2%  direct: 0.2%  skip:67.8%  L0:38.6% L1:53.8% BI: 7.5%
[libx264 @ 0x56290fd44c60] 8x8 transform intra:45.9% inter:66.7%
[libx264 @ 0x56290fd44c60] coded y,uvDC,uvAC intra: 44.6% 49.8% 18.1% inter: 7.1% 4.4% 0.1%
[libx264 @ 0x56290fd44c60] i16 v,h,dc,p: 32% 40% 13% 15%
[libx264 @ 0x56290fd44c60] i8 v,h,dc,ddl,ddr,vr,hd,vl,hu: 18% 21% 21%  5%  3%  3%  3% 17%  9%
[libx264 @ 0x56290fd44c60] i4 v,h,dc,ddl,ddr,vr,hd,vl,hu: 25% 21% 15%  5%  3%  3%  2% 22%  3%
[libx264 @ 0x56290fd44c60] i8c dc,h,v,p: 50% 23% 18% 10%
[libx264 @ 0x56290fd44c60] Weighted P-Frames: Y:1.3% UV:0.0%
[libx264 @ 0x56290fd44c60] ref P L0: 58.4% 21.2% 17.2%  3.1%  0.0%
[libx264 @ 0x56290fd44c60] ref B L0: 90.8%  8.3%  0.9%
[libx264 @ 0x56290fd44c60] ref B L1: 92.1%  7.9%
[libx264 @ 0x56290fd44c60] PSNR Mean Y:38.827 U:44.658 V:47.587 Avg:40.178 Global:40.146 kb/s:361.13
